<svg width="160" height="160" viewBox="0 0 160 160" fill="none" xmlns="http://www.w3.org/2000/svg">
<circle cx="80" cy="80" r="80" fill="#476AE6"/>
<g clip-path="url(#clip0)">
<path d="M135.892 57.3403C135.635 51.4956 134.689 47.4774 133.335 43.9956C131.939 40.2997 129.79 36.9908 126.975 34.2401C124.224 31.4466 120.893 29.2759 117.24 27.901C113.738 26.547 109.741 25.6018 103.896 25.3442C98.0077 25.0646 96.1384 25 81.2038 25C66.2693 25 64.4 25.0646 58.5334 25.3223C52.6887 25.58 48.6705 26.526 45.1895 27.8791C41.4928 29.2759 38.1839 31.4247 35.4332 34.2401C32.6397 36.9908 30.4698 40.3215 29.0941 43.9746C27.7401 47.4774 26.795 51.4738 26.5373 57.3185C26.2577 63.2069 26.1931 65.0762 26.1931 80.0107C26.1931 94.9453 26.2577 96.8146 26.5154 102.681C26.7731 108.526 27.7191 112.544 29.0731 116.026C30.4698 119.722 32.6397 123.031 35.4332 125.781C38.1839 128.575 41.5146 130.746 45.1677 132.121C48.6705 133.474 52.6669 134.42 58.5124 134.677C64.3781 134.936 66.2483 135 81.1829 135C96.1174 135 97.9868 134.936 103.853 134.677C109.698 134.42 113.716 133.474 117.197 132.121C124.59 129.262 130.434 123.418 133.293 116.026C134.646 112.523 135.592 108.526 135.849 102.681C136.107 96.8146 136.172 94.9453 136.172 80.0107C136.172 65.0762 136.15 63.2069 135.892 57.3403ZM125.987 102.251C125.75 107.624 124.847 110.525 124.095 112.458C122.247 117.251 118.444 121.054 113.652 122.902C111.718 123.654 108.796 124.557 103.445 124.793C97.6426 125.051 95.9025 125.115 81.2257 125.115C66.5488 125.115 64.7869 125.051 59.006 124.793C53.6338 124.557 50.7329 123.654 48.7989 122.902C46.4142 122.021 44.2435 120.624 42.4816 118.798C40.6551 117.014 39.2583 114.865 38.377 112.48C37.6249 110.546 36.7225 107.624 36.4866 102.273C36.2281 96.4713 36.1643 94.7304 36.1643 80.0536C36.1643 65.3767 36.2281 63.6148 36.4866 57.8347C36.7225 52.4626 37.6249 49.5616 38.377 47.6276C39.2583 45.2421 40.6551 43.0722 42.5034 41.3095C44.2863 39.483 46.4352 38.0862 48.8207 37.2057C50.7547 36.4536 53.6775 35.5512 59.0278 35.3145C64.8297 35.0568 66.5706 34.9922 81.2467 34.9922C95.9453 34.9922 97.6854 35.0568 103.466 35.3145C108.838 35.5512 111.739 36.4536 113.673 37.2057C116.058 38.0862 118.229 39.483 119.991 41.3095C121.817 43.0932 123.214 45.2421 124.095 47.6276C124.847 49.5616 125.75 52.4835 125.987 57.8347C126.244 63.6366 126.309 65.3767 126.309 80.0536C126.309 94.7304 126.244 96.4495 125.987 102.251Z" fill="white"/>
<path d="M81.204 51.7534C65.6038 51.7534 52.9465 64.4099 52.9465 80.0109C52.9465 95.6119 65.6038 108.268 81.204 108.268C96.805 108.268 109.461 95.6119 109.461 80.0109C109.461 64.4099 96.805 51.7534 81.204 51.7534ZM81.204 98.3408C71.0834 98.3408 62.8741 90.1323 62.8741 80.0109C62.8741 69.8894 71.0834 61.681 81.204 61.681C91.3255 61.681 99.5339 69.8894 99.5339 80.0109C99.5339 90.1323 91.3255 98.3408 81.204 98.3408Z" fill="white"/>
<path d="M117.176 50.6359C117.176 54.2789 114.223 57.2327 110.579 57.2327C106.936 57.2327 103.982 54.2789 103.982 50.6359C103.982 46.9921 106.936 44.0391 110.579 44.0391C114.223 44.0391 117.176 46.9921 117.176 50.6359Z" fill="white"/>
</g>
<defs>
<clipPath id="clip0">
<rect width="110" height="110" fill="white" transform="translate(26 25)"/>
</clipPath>
</defs>
</svg>
