<svg width="160" height="160" viewBox="0 0 160 160" fill="none" xmlns="http://www.w3.org/2000/svg">
<circle cx="80" cy="80" r="80" fill="#476AE6"/>
<path d="M21.9429 82.0367L47.2891 91.4967L57.0997 123.047C57.7274 125.068 60.1984 125.815 61.8385 124.474L75.9669 112.956C77.4478 111.75 79.5573 111.689 81.105 112.813L106.588 131.314C108.342 132.589 110.828 131.628 111.268 129.508L129.935 39.7142C130.415 37.3984 128.14 35.4664 125.935 36.3193L21.9132 76.4476C19.3462 77.4376 19.3686 81.072 21.9429 82.0367ZM55.5186 86.4609L105.055 55.9517C105.945 55.405 106.861 56.6088 106.096 57.3179L65.2147 95.3192C63.7778 96.6568 62.8508 98.4469 62.5883 100.39L61.1957 110.71C61.0113 112.088 59.0756 112.225 58.6954 110.891L53.3395 92.072C52.7261 89.9256 53.62 87.6328 55.5186 86.4609Z" fill="white"/>
</svg>
