<svg width="160" height="160" viewBox="0 0 160 160" fill="none" xmlns="http://www.w3.org/2000/svg">
<circle cx="80" cy="80" r="80" fill="#476AE6"/>
<g clip-path="url(#clip0)">
<path d="M119.891 41.0671C109.503 30.7059 95.6908 25 81 25C66.3092 25 52.4971 30.7059 42.1091 41.0671C31.7211 51.4283 26 65.2043 26 79.8573C26 91.4421 29.5449 102.439 36.2714 111.783L26.0722 135L51.5782 126.213C60.375 131.781 70.5121 134.715 81 134.715C95.6908 134.715 109.503 129.009 119.891 118.648C130.279 108.286 136 94.5103 136 79.8573C136 65.2052 130.279 51.4283 119.891 41.0671Z" fill="white"/>
<path d="M136 79.8576C136 65.2046 130.279 51.4286 119.891 41.0674C109.528 30.7322 95.7587 25.0296 81.1082 25.002V134.714C95.7587 134.686 109.528 128.984 119.891 118.648C130.279 108.287 136 94.5106 136 79.8576Z" fill="white"/>
<path d="M113.438 98.7023C108.413 106.114 108.413 106.114 108.3 106.25C105.505 109.654 101.14 111.414 95.6931 111.414C93.6656 111.414 91.4886 111.171 89.1857 110.677C81.4455 109.018 72.9961 104.684 65.3926 98.4732C57.79 92.2612 51.865 84.8525 48.7103 77.6107C45.251 69.6682 45.46 62.7185 49.3003 58.0423C49.4119 57.908 49.4119 57.908 55.9756 51.2386L58.599 48.5732L73.0918 67.7925L67.9758 74.023C70.4683 77.4689 73.414 81.1439 77.1301 84.1802C80.8463 87.2166 85.0391 89.3726 88.9172 91.1316L94.0717 84.8558L115.486 95.6828L113.438 98.7023Z" fill="#476AE6"/>
<path d="M94.0718 84.856L88.9181 91.1317C86.3752 89.9786 83.698 88.6526 81.1082 87.022V108.089C83.8415 109.24 86.5548 110.114 89.1858 110.677C91.4886 111.171 93.6656 111.414 95.6932 111.414C101.14 111.414 105.505 109.654 108.3 106.251C108.413 106.114 108.413 106.114 113.438 98.7025L115.486 95.6829L94.0718 84.856Z" fill="#476AE6"/>
</g>
<defs>
<clipPath id="clip0">
<rect width="110" height="110" fill="white" transform="translate(26 25)"/>
</clipPath>
</defs>
</svg>
