<svg width="58" height="58" viewBox="0 0 58 58" fill="none" xmlns="http://www.w3.org/2000/svg">
<path d="M47.9718 49.9999H10.0272C9.60638 50.0038 9.19252 49.892 8.83091 49.6767C8.4693 49.4613 8.17385 49.1507 7.97686 48.7787C7.77487 48.4027 7.67842 47.9791 7.69774 47.5527C7.71706 47.1263 7.85142 46.7131 8.08659 46.3568C9.71222 43.905 11.0781 41.2906 12.1623 38.5559C13.6215 34.9804 14.3927 31.1615 14.4352 27.2999V22.9648C14.3771 19.1684 15.7855 15.4959 18.3672 12.7119C20.9489 9.92784 24.5049 8.24684 28.2949 8.01885C30.2647 7.92391 32.2333 8.22981 34.0814 8.91803C35.9296 9.60625 37.6187 10.6625 39.0467 12.0227C40.4746 13.3829 41.6116 15.0188 42.3887 16.8314C43.1658 18.6439 43.5669 20.5953 43.5677 22.5674V27.2999C43.5677 35.0719 47.0164 41.9567 49.9164 46.3561C50.1518 46.7121 50.2864 47.1254 50.3057 47.5519C50.3251 47.9783 50.2284 48.402 50.0261 48.778C49.8289 49.1506 49.5329 49.4618 49.1705 49.6774C48.8081 49.8929 48.3934 50.0045 47.9718 49.9999ZM29.0089 9.56996C28.7952 9.56996 28.5815 9.57518 28.3678 9.58563C24.9804 9.79482 21.8043 11.3024 19.5006 13.7946C17.1969 16.2868 15.9432 19.5715 16.0005 22.9648V27.3023C15.9587 31.3601 15.1514 35.3736 13.6209 39.1319C12.4969 41.9671 11.0811 44.6776 9.39629 47.2198C9.31499 47.339 9.26816 47.4783 9.26097 47.6224C9.25378 47.7665 9.2865 47.9098 9.35554 48.0365C9.41967 48.1584 9.51632 48.2601 9.63475 48.3304C9.75317 48.4007 9.88876 48.4368 10.0265 48.4347H47.9718C48.1094 48.4367 48.2449 48.4007 48.3633 48.3306C48.4817 48.2605 48.5784 48.1589 48.6427 48.0373C48.7117 47.9106 48.7445 47.7673 48.7373 47.6232C48.7301 47.4791 48.6833 47.3398 48.602 47.2206C45.5899 42.6378 41.9994 35.4638 41.9994 27.3031V22.5674C41.9979 19.122 40.629 15.8179 38.1934 13.3809C35.7577 10.9439 32.4544 9.57328 29.0089 9.56996Z" fill="#CACBCF"/>
<path d="M46.4415 42.6486H11.5631C11.3552 42.6486 11.1558 42.566 11.0089 42.4191C10.8619 42.2721 10.7793 42.0727 10.7793 41.8648C10.7793 41.657 10.8619 41.4576 11.0089 41.3106C11.1558 41.1636 11.3552 41.0811 11.5631 41.0811H46.4415C46.6493 41.0811 46.8487 41.1636 46.9957 41.3106C47.1427 41.4576 47.2252 41.657 47.2252 41.8648C47.2252 42.0727 47.1427 42.2721 46.9957 42.4191C46.8487 42.566 46.6493 42.6486 46.4415 42.6486Z" fill="#CACBCF"/>
<path d="M29 56.4322C27.0867 56.4301 25.2525 55.6692 23.8996 54.3163C22.5467 52.9634 21.7858 51.1292 21.7837 49.2159C21.7837 49.008 21.8663 48.8087 22.0133 48.6617C22.1602 48.5147 22.3596 48.4321 22.5675 48.4321C22.7753 48.4321 22.9747 48.5147 23.1217 48.6617C23.2687 48.8087 23.3513 49.008 23.3513 49.2159C23.3513 50.7141 23.9464 52.1508 25.0057 53.2102C26.0651 54.2695 27.5019 54.8646 29 54.8646C30.4981 54.8646 31.9349 54.2695 32.9942 53.2102C34.0536 52.1508 34.6487 50.7141 34.6487 49.2159C34.6487 49.008 34.7313 48.8087 34.8783 48.6617C35.0253 48.5147 35.2246 48.4321 35.4325 48.4321C35.6404 48.4321 35.8397 48.5147 35.9867 48.6617C36.1337 48.8087 36.2163 49.008 36.2163 49.2159C36.2142 51.1292 35.4533 52.9634 34.1004 54.3163C32.7475 55.6692 30.9132 56.4301 29 56.4322Z" fill="#CACBCF"/>
<path d="M25.3248 10.082C25.1169 10.082 24.9176 9.99944 24.7706 9.85245C24.6236 9.70546 24.541 9.50611 24.541 9.29823V6.02672C24.541 4.84403 25.0108 3.70978 25.8471 2.87349C26.6834 2.0372 27.8177 1.56738 29.0004 1.56738C30.183 1.56738 31.3173 2.0372 32.1536 2.87349C32.9899 3.70978 33.4597 4.84403 33.4597 6.02672V9.27942C33.4597 9.4873 33.3771 9.68665 33.2301 9.83364C33.0831 9.98063 32.8838 10.0632 32.6759 10.0632C32.468 10.0632 32.2687 9.98063 32.1217 9.83364C31.9747 9.68665 31.8921 9.4873 31.8921 9.27942V6.02672C31.8921 5.25978 31.5875 4.52424 31.0451 3.98193C30.5028 3.43962 29.7673 3.13495 29.0004 3.13495C28.2334 3.13495 27.4979 3.43962 26.9556 3.98193C26.4132 4.52424 26.1086 5.25978 26.1086 6.02672V9.29823C26.1086 9.50611 26.026 9.70546 25.879 9.85245C25.732 9.99944 25.5327 10.082 25.3248 10.082Z" fill="#CACBCF"/>
</svg>
