<svg width="39" height="39" viewBox="0 0 39 39" fill="none" xmlns="http://www.w3.org/2000/svg">
<g clip-path="url(#clip0)">
<path d="M0 9.62859V29.3712C0 32.0916 2.21925 34.3108 4.93963 34.3108H20.896C23.6164 34.3108 25.8356 32.0916 25.8356 29.3712V26.1736C25.8356 25.6327 25.3981 25.1952 24.8572 25.1952C24.3163 25.1952 23.8788 25.6327 23.8788 26.1736V29.3712C23.8788 31.0177 22.5346 32.362 20.888 32.362H4.93963C3.29309 32.362 1.94881 31.0177 1.94881 29.3712V9.62859C1.94881 7.98205 3.29309 6.63777 4.93963 6.63777H20.896C22.5425 6.63777 23.8868 7.98205 23.8868 9.62859V12.8262C23.8868 13.3671 24.3243 13.8046 24.8652 13.8046C25.4061 13.8046 25.8436 13.3671 25.8436 12.8262V9.62859C25.8436 6.90822 23.6243 4.68896 20.9039 4.68896H4.93963C2.21925 4.68896 0 6.90026 0 9.62859Z" fill="#CACBCF"/>
<path d="M30.6558 26.8574C30.8467 27.0484 31.0933 27.1438 31.3479 27.1438C31.6024 27.1438 31.849 27.0484 32.0399 26.8574L38.7136 20.1838C39.0954 19.802 39.0954 19.1895 38.7136 18.8077L32.0399 12.134C31.6581 11.7522 31.0456 11.7522 30.6638 12.134C30.282 12.5158 30.282 13.1283 30.6638 13.5101L35.675 18.5213H17.388C16.8472 18.5213 16.4097 18.9588 16.4097 19.4997C16.4097 20.0406 16.8472 20.4781 17.388 20.4781H35.6671L30.6558 25.4893C30.274 25.8632 30.274 26.4836 30.6558 26.8574Z" fill="#CACBCF"/>
</g>
<defs>
<clipPath id="clip0">
<rect width="39" height="39" fill="white"/>
</clipPath>
</defs>
</svg>
