<svg width="33" height="33" viewBox="0 0 33 33" fill="none" xmlns="http://www.w3.org/2000/svg">
<path d="M31.9455 30.0578L24.0914 21.8892C26.1108 19.4886 27.2173 16.4681 27.2173 13.3237C27.2173 5.97714 21.2402 0 13.8936 0C6.54697 0 0.569824 5.97714 0.569824 13.3237C0.569824 20.6703 6.54697 26.6475 13.8936 26.6475C16.6516 26.6475 19.2798 25.8156 21.5269 24.2365L29.4406 32.467C29.7714 32.8106 30.2163 33 30.6931 33C31.1443 33 31.5724 32.8279 31.8974 32.5151C32.5879 31.8507 32.6099 30.7489 31.9455 30.0578ZM13.8936 3.47576C19.3239 3.47576 23.7415 7.89345 23.7415 13.3237C23.7415 18.754 19.3239 23.1717 13.8936 23.1717C8.46327 23.1717 4.04558 18.754 4.04558 13.3237C4.04558 7.89345 8.46327 3.47576 13.8936 3.47576Z" fill="#13DB79"/>
</svg>
